<svg xmlns="http://www.w3.org/2000/svg" height="761.28" width="947.267" xml:space="preserve">
    <path style="fill:#f7f8f9;fill-opacity:1;fill-rule:nonzero;stroke:none" d="M3493.93 4685.56c.98-3.5 2.76-6.53 5.31-9.11 2.45-2.45 6.11-4.63 9.47-5.55 5.43-1.49 10.72-.39 15.51 2.34 4.62 2.63 8.08 7.23 9.49 12.32.9 3.27.92 7.31 1.27 10.74.25 2.43-.14 5.17-.21 7.6-.09 2.68-.22 5.35-.34 8.01-.57 12.16-.94 24.32-1.33 36.48-1.14 35.24-1.68 70.5-2.22 105.76-.55 34.92-1.08 69.82-1.58 104.74-.51 34.8-1.03 69.59-1.6 104.39-.28 16.9-.51 33.78-.88 50.69-.2 8.69-.38 17.4-.57 26.09l-.27 11.61c-.03 1.94-.07 3.88-.12 5.81-.05 2.1-.57 3.89-1.47 5.63-1.33 3.23-4.5 5.89-7.6 6.74-.99.28-1.97.4-2.92.4h-.05c-.97.01-1.97-.12-2.97-.4-3.08-.84-6.23-3.47-7.57-6.67-.91-1.76-1.45-3.57-1.5-5.7-.07-2.91-.12-5.81-.19-8.72-.13-5.78-.25-11.59-.38-17.39-.28-12.27-.56-24.52-.76-36.79-.37-23.97-.82-47.95-1.17-71.92-.71-48.34-1.4-96.66-2.15-145-.74-48.77-1.56-97.54-3.14-146.29-.36-10.85-.94-21.68-1.26-32.53-.07-2.65.19-5.17.48-7.79.23-1.83.48-3.66.72-5.49M3487.33 4358.88c.39-5.11.46-10.51 1.59-15.51.66-2.93 1.32-5.86 1.98-8.77 2.29-10.17 12.76-17.58 22.91-17.58 8.33 0 16.36 4.74 20.54 11.89 2.17 3.7 2.79 7.48 3.72 11.53 1.05 4.67 1.54 9.35 1.91 14.11.66 8.65 1.33 17.29 1.99 25.94.7 8.88.68 17.68.68 26.59v107.68c0 15.71-13.12 28.83-28.84 28.83-15.71 0-28.81-13.12-28.81-28.83v-103.18c0-8.92-.35-17.88.34-26.78.66-8.63 1.33-17.27 1.99-25.92M3534 3939.02c-1.28 93.23-1.78 186.46-1.78 279.71 0 10.04-8.38 18.4-18.39 18.4-10.03 0-18.41-8.36-18.41-18.4 0-93.25-.5-186.48-1.77-279.71-.63-45.9-.41-91.79-.36-137.68.03-22.35-.05-44.74.75-67.07.17-4.6.48-9.2.77-13.78.33-5.13.33-10.28.7-15.41.37-4.94.99-9.85 1.42-14.79.48-5.49 1.44-11.31 2.73-16.67 1.53-6.32 7.78-10.78 14.17-10.78 6.37 0 12.62 4.46 14.15 10.78 2.22 9.16 2.84 18.68 3.82 28.01.46 4.3.6 8.58.74 12.87.2 5.76.71 11.49.96 17.23.94 22.03.8 44.11.85 66.16.09 47.03.29 94.1-.35 141.13M3533.83 3569.13c-.09 17.49 0 34.99 0 52.48 0 10.9-9.09 20.01-20.01 20.01-10.92 0-20.02-9.11-20.02-20.01v-48.98c0-7.25-.06-14.49-.11-21.73-.03-8.5-.21-17.24 1.58-25.58 1.79-8.3 10.37-14.12 18.55-14.12 8.19 0 16.77 5.82 18.54 14.12 1.61 7.51 1.47 15.14 1.56 22.79.07 7-.03 14.01-.09 21.02M3513.82 1837.97c-10.85 0-19.9-9.04-19.9-19.89 0-31.97-.2-63.94.11-95.89l.42-46.82c.06-7.21.13-14.41.2-21.61.03-3.65.57-7.4.85-11.04.37-4.9.74-9.8 1.13-14.7.36-4.69 1.62-8.75 5.03-12.16 3.21-3.22 7.62-5.02 12.16-5.02 4.55 0 8.95 1.8 12.17 5.02 3.4 3.41 4.66 7.47 5.01 12.16.58 7.35 1.14 14.7 1.71 22.07.66 8.37.41 16.86.48 25.28.14 15.6.29 31.21.43 46.82.3 31.95.1 63.92.1 95.89 0 10.85-9.05 19.89-19.9 19.89M3490.66 1283.77c-.17-39.73-.28-79.45-.26-119.16 0-19.65.01-39.31.01-58.94 0-9.52.36-19.03.54-28.55.19-10.27 2.43-20.63 3.92-30.78.94-3.32 2.63-6.21 5.06-8.67 3.68-3.66 8.7-5.75 13.88-5.75 3.56.02 6.86.91 9.93 2.68 3.94 2.31 8.32 7 9.02 11.74 1.49 10.15 3.74 20.51 3.92 30.78.19 9.52.37 19.03.55 28.55.38 19.63.02 39.3.02 58.94.01 39.71-.09 79.43-.27 119.16-.34 79.16-1.08 158.31-1.08 237.47 0 12.03-10.05 22.08-22.09 22.08-12.03 0-22.06-10.05-22.06-22.08 0-79.16-.75-158.31-1.09-237.47M3513.82 906.691c-17.24 0-31.62-14.382-31.62-31.601 0-53.852-.24-107.68-.26-161.508-.02-52.293 1.24-104.832 7.31-156.812.3-2.18.59-4.372.89-6.54 1.15-4.171 3.27-7.769 6.32-10.839a24.623 24.623 0 0 1 17.36-7.192c6.5 0 12.79 2.61 17.37 7.192 1.29 1.648 2.57 3.32 3.85 4.968 2.21 3.832 3.33 7.973 3.35 12.411 6.07 51.98 7.34 104.519 7.32 156.812-.02 53.828-.27 107.68-.27 161.508 0 17.219-14.38 31.601-31.62 31.601M2618.39 3878.08c34.14-47.65 68.26-95.32 102.32-143.04 17.15-24.07 34.47-48 51.78-71.97 8.1-11.24 16.21-22.46 24.36-33.68 4.53-6.25 9.05-12.5 13.6-18.75 4.79-6.62 9.41-13.68 15.14-19.52 7.14-7.26 18.75-8.67 27.49-3.55 5.07 2.96 8.85 7.88 10.42 13.56 1.68 6.1.57 11.93-2.28 17.47-2.87 5.57-6.81 10.52-10.47 15.6-4.49 6.27-9.02 12.54-13.53 18.81-8.09 11.23-16.19 22.47-24.32 33.69-17.31 23.95-34.62 47.93-52.07 71.79a80743.58 80743.58 0 0 0-103.79 142.19c-72.4 99.37-144.88 198.68-216.87 298.33-3.37 4.66-7 8.21-12.73 9.8-1.84.5-3.73.75-5.62.75-3.77 0-7.53-.99-10.8-2.9-4.78-2.79-8.33-7.42-9.8-12.75-1.39-5.06-1.05-11.98 2.14-16.4 71.98-99.6 143.45-199.55 215.03-299.43M2940.17 3508.98c-3.55 4.93-7.37 8.66-13.42 10.33-1.94.54-3.94.8-5.93.8-3.98 0-7.94-1.05-11.4-3.07-5.03-2.95-8.79-7.81-10.33-13.42-1.46-5.35-1.11-12.66 2.27-17.33 12.75-17.63 25.1-35.63 38.41-52.85 11.86-15.36 23.6-30.82 35.67-46.02 2.56-2.54 5.56-4.3 9.04-5.27 5.29-1.46 11.06-.69 15.78 2.08 9.27 5.41 13.47 18.67 7.35 28.03-9.91 15.14-20.16 30.07-30.29 45.07-5.5 8.17-11.43 16.07-17.2 24.04-6.65 9.21-13.29 18.41-19.95 27.61M4610.75 1199.3c-4.11 7.75-9.36 15.02-14.07 22.43-9.81 15.48-20.34 30.51-30.9 45.51-20.63 29.32-41.58 58.41-62.56 87.47-41.57 57.65-83.02 115.37-124.46 173.09-86.95 121.12-175.42 241.15-262.72 362.02-11.35 15.68-22.68 31.35-34 47.05-1.42 1.83-2.85 3.67-4.26 5.52-3.43 3.39-7.44 5.73-12.07 7.03-2.37.65-4.8.97-7.22.97-4.82 0-9.64-1.26-13.84-3.72-6.11-3.59-10.67-9.51-12.56-16.33-1.78-6.5-1.34-15.4 2.76-21.06a55486.52 55486.52 0 0 0 130.96-182.09c43.5-60.73 86.78-121.6 130.71-182 41.98-57.73 84.09-115.38 125.94-173.22 20.64-28.56 41.31-57.11 61.98-85.67 10.42-14.4 21.05-28.67 31.6-42.98 11.34-15.37 22.6-30.97 34.71-45.77 6.6-8.08 13.2-16.16 19.8-24.21 5.95-7.27 13-13.8 19.48-20.57 6.36-6.62 17.02-7.77 24.84-3.19 9.94 5.81 12.59 18.16 7.36 28.04-3.83 7.23-7.65 14.46-11.48 21.68M2591.76 5429.64c.8-4.85 2.43-9.43 3.9-14.12 1.66-5.25 3.31-10.52 4.96-15.79 3.64-11.58 7.42-23.12 11.15-34.66 7.05-21.86 14.09-43.71 21.12-65.56 14.21-44.08 28.39-88.18 42.75-132.21 29.23-89.57 58.4-179.15 87.7-268.68 28.62-87.46 56.9-175.01 85.97-262.32 14.56-43.76 29.25-87.47 44.02-131.17 7.05-20.82 13.98-41.68 21.33-62.38 3.67-10.35 7.08-20.82 11.11-31.01 1.81-4.6 3.62-9.18 5.44-13.78 2.35-5.98 5.59-11.54 8.73-17.15 3.34-5.95 10.72-8.81 17.24-7.01 3.82 1.04 7.12 3.6 9.12 7.01.52 1.22 1.03 2.43 1.55 3.66.72 2.7.72 5.41 0 8.11-.7 4.97-1.46 9.91-2.33 14.84-.41 2.36-1.33 4.78-1.97 7.1-.66 2.36-1.31 4.73-1.97 7.08-3.18 11.44-7.08 22.69-10.67 34-6.93 21.87-14.33 43.61-21.57 65.37-14.84 44.55-29.79 89.05-44.83 133.51-30.16 89.14-61.14 177.99-91.75 266.97-30.06 87.37-60.24 174.66-90.34 262.01-14.81 42.91-29.83 85.76-44.79 128.62-7.28 20.84-14.54 41.68-21.81 62.52-3.69 10.6-7.34 21.2-11.13 31.77-1.86 5.2-3.71 10.42-5.57 15.62-2.01 5.59-3.84 11.17-6.59 16.42-1.9 3.65-5.87 5.59-9.83 5.59-2 0-3.99-.5-5.72-1.51-4.68-2.74-6.37-7.95-5.12-12.82l-.1-.03M3071.68 4032.33c4.17 1.15 7.78 3.94 9.96 7.67 2.38 4.06 2.57 8.3 1.69 12.83-1.37 6.92-2.45 13.97-4.48 20.72-2.16 7.19-4.31 14.38-6.48 21.55-4.65 15.52-9.16 31.09-14.3 46.45-10.19 30.39-20.4 60.76-30.6 91.16-1.77 5.27-4.74 9.64-9.62 12.51a21.174 21.174 0 0 1-10.62 2.86c-1.85 0-3.72-.25-5.52-.74-10.54-2.91-18.26-14.93-14.63-25.76 10.19-30.4 20.38-60.79 30.59-91.17 5.17-15.41 10.98-30.57 16.64-45.8 2.63-7.05 5.23-14.11 7.87-21.16 2.99-8.08 6.94-15.71 10.7-23.45 3.21-6.66 12.04-9.54 18.8-7.67M3129.87 3785.33c6.43-19.07 12.95-38.07 19.85-56.98 1.41-3.81 2.81-7.65 4.21-11.48 2.07-5.67 3.89-11.54 6.51-16.97 1.83-3.75 3.65-7.49 5.46-11.24 1.29-1.71 2.59-3.41 3.88-5.13 1.1-1.44 2.19-2.9 3.27-4.33 1.56-2.63 3.66-4.73 6.29-6.29 4.04-2.38 8.98-3.02 13.51-1.77 7.52 2.07 12.87 9.1 12.87 16.9 0 2.76 0 5.55.02 8.33.01 5.12-1 10-2 15.01-2 10.05-5.37 19.76-8.37 29.56-5.88 19.23-12.13 38.28-18.5 57.34-12.75 38.1-25.53 76.19-38.32 114.27-2.07 6.15-5.51 11.25-11.22 14.59a24.617 24.617 0 0 1-12.35 3.32c-2.17 0-4.34-.29-6.45-.87-12.28-3.38-21.27-17.4-17.04-30.01 12.78-38.09 25.55-76.17 38.38-114.25M3917.62 1581.86c-1.09 5.19-2.22 10.37-3.33 15.56-1.12 5.18-2.9 10.12-4.57 15.14-7.13 21.72-14.27 43.42-21.64 65.07-15.13 44.47-30.14 88.99-45.09 133.54-2.01 5.96-5.34 10.9-10.89 14.15-3.63 2.12-7.8 3.21-11.98 3.21-2.11 0-4.22-.27-6.26-.84-11.93-3.28-20.65-16.88-16.55-29.13 14.95-44.52 29.81-89.09 44.58-133.68 7.19-21.7 14.59-43.32 22-64.96 1.93-5.68 3.69-11.44 6.21-16.88 2.2-4.74 4.41-9.47 6.58-14.18 4.48-9.61 8.81-19.29 13.48-28.78 3.56-7.29 13.15-10.44 20.62-8.4a18.32 18.32 0 0 1 10.89 8.4c2.63 4.47 2.81 9.1 1.85 14.06-1.8 9.28-3.89 18.49-5.9 27.72M4257.5 580.461c-11.13 33.73-22.44 67.41-33.77 101.059-22.86 67.89-45.76 135.742-68.72 203.609-46.26 136.661-93.36 273.041-139.76 409.651-15.15 44.56-30.15 89.17-45.12 133.79-1.89 5.68-5.08 10.38-10.33 13.46a22.74 22.74 0 0 1-11.42 3.07c-1.99 0-3.99-.27-5.92-.81-11.33-3.12-19.62-16.04-15.72-27.67 46.18-137.64 91.42-275.61 136.87-413.5 44.89-136.229 90.3-272.311 135.98-408.3 6.8-20.238 13.48-40.601 21.02-60.57 3.79-9.961 7.69-19.84 11.76-29.668 3.78-9.16 7.56-18.582 13.26-26.703a19.45 19.45 0 0 1 6.88-6.899c4.45-2.578 9.84-3.3 14.81-1.929 8.01 2.211 14.38 10.031 14.1 18.519-.55 15.321-5.15 30.25-9 45.012-4.21 16.148-9.68 32.02-14.92 47.879M3808.31 3529.77c5.49-1.51 11.46-.72 16.38 2.13 4.95 2.91 7.95 7.35 9.75 12.7 31.79 94.92 63.85 189.74 96.13 284.49 15.52 45.56 31.21 91.06 47.08 136.47 6.94 19.85 14.11 39.61 20.9 59.5 3.21 9.42 5.41 19.17 7.84 28.81 1.12 4.4 2.3 8.8 3.43 13.21.39 2.27.78 4.52 1.15 6.79.57 3.27 1.46 6.63 1.23 9.95-.52 7.01-3.41 13.19-9.68 16.86-2.97 1.73-6.53 2.63-10.09 2.63-5.1 0-10.22-1.83-13.59-5.68-6.36-7.28-9.68-16.6-13.34-25.41-3.88-9.42-8.19-18.73-11.64-28.31-6.85-19.1-12.54-38.65-18.69-57.98-15.02-47.07-30.32-94.06-45.77-140.98-31.75-96.44-63.68-192.78-95.92-289.04-3.68-11 4.13-23.19 14.83-26.14M4062.59 4303.61c3.95-2.29 8.74-2.93 13.15-1.71 6.15 1.69 9.74 6.19 11.9 11.91 11.74 30.93 22.62 62.23 33.49 93.47 10.9 31.38 21.78 62.74 32.66 94.11 21.7 62.49 43.09 125.06 64.45 187.66 42.91 125.72 85.71 251.51 128.57 377.26 10.08 29.61 20.43 59.13 30.22 88.85 4.86 14.79 9.72 29.58 14.6 44.36 2.2 6.73 4.44 13.41 6.19 20.28 1.43 5.77 1.13 13.02-2.37 18.08-.72 1.03-1.43 2.06-2.16 3.1-1.29 3.29-3.6 6.13-6.86 8.04-2.45 1.44-5.53 2.21-8.6 2.21-3.2 0-6.39-.83-8.92-2.6-5.87-1.92-10.79-5.33-13.95-10.75-1.92-3.27-3.22-7.64-4.72-11.19-1.47-3.44-2.49-7.15-3.7-10.71-5.43-15.98-10.88-31.93-16.33-47.91-10.51-30.86-20.44-61.93-30.63-92.91-20.84-63.34-41.7-126.7-62.57-190.06-41.37-125.52-82.83-251.03-123.43-376.8-9.78-30.29-19.56-60.57-29.33-90.86-10.12-31.41-20.27-62.88-29.5-94.56l.12-.03c-1.89-7.29.8-15.2 7.72-19.24M4429.48 5385.53c8.14-2.24 16.23 2.7 18.64 10.6 1.17 3.62 2.32 7.24 3.48 10.89.29.89.52 1.83.73 2.77 1.1 3.6 2.21 7.19 3.31 10.78.79.55 1.55 1.15 2.26 1.86 2.82 2.79 3.24 4.55 4.73 8.16 1.71 4.15 2.77 8.55 4.15 12.81 3.23 9.91 6.31 19.81 9.26 29.79 6.8 22.99 14.25 45.81 21.51 68.65 7.49 23.67 14.98 47.33 22.47 71 3.65 11.5 7.29 22.99 10.94 34.5l5.79 18.27c.7 2.14 1.33 4.3 2 6.45 1.06 3.38 1.23 6.79 1.52 10.28.18 2.33-.52 4.5-1.74 6.37 1.12 3.76 2.27 7.51 3.38 11.27 1.17 3.96-1.37 8.23-5.29 9.32-.69.19-1.37.28-2.03.28-3.34 0-6.22-2.29-7.31-5.57-1.31-3.47-2.57-6.97-3.87-10.44-2.49-1.05-4.57-2.82-5.9-5.11-.03.02-.05.04-.07.06-1.52-2.38-2.9-4.47-3.87-7.17-.77-2.13-1.53-4.26-2.32-6.37-2.11-5.88-4.15-11.77-6.23-17.65-4.01-11.38-8.03-22.76-12.05-34.14-8.27-23.44-16.54-46.87-24.83-70.32-7.8-22.03-15.31-44.23-23.51-66.11-3.59-9.58-7.19-19.12-10.5-28.8-1.54-4.49-3.23-8.93-4.71-13.42-.5-1.53-1.11-3.11-1.5-4.65-.88-3.37-.77-6.87.26-10.1-1.52-4.16-3.02-8.32-4.53-12.48-1.8-4.29-3.22-8.73-4.76-13.12-1.29-3.71-.4-8.38 1.53-11.68 1.99-3.39 5.28-5.93 9.06-6.98M3225.14 1797.01a29.31 29.31 0 0 1-7.61 1.02c-5.08 0-10.14-1.33-14.55-3.92-6.73-3.93-10.8-9.94-13.23-17.19-23.86-71.26-47.72-142.5-71.62-213.75-11.96-35.71-24.12-71.38-36.23-107.08-6.29-18.52-12.55-37.04-18.83-55.55-2.81-8.26-5.6-16.53-8.4-24.79-2.65-7.77-5.42-15.5-7.48-23.45-3.96-15.36 4.86-31.53 20.33-35.79 7.51-2.06 15.69-.99 22.42 2.93 1.95 1.52 3.93 3.04 5.88 4.54 3.6 3.65 6.1 7.92 7.49 12.85 5.91 14.26 10.17 29.3 15.02 43.97 6.12 18.49 12.25 36.99 18.37 55.51 11.83 35.76 23.58 71.57 35.53 107.28 24.32 72.69 48.66 145.37 73 218.03 4.97 14.88-5.61 31.41-20.09 35.39M3015.39 1169.09c-1.7.47-3.38.68-5.02.68-8.36 0-15.58-5.75-18.32-13.94-20.91-62.44-42.57-124.63-63.95-186.928-21.64-63.113-43.32-126.25-64.9-189.39-20.94-61.27-41.9-122.543-62.8-183.84-10.15-29.82-20.27-59.672-30.37-89.531-5.05-14.93-10.09-29.871-15.11-44.821-2.49-7.379-5.01-14.738-7.49-22.109-1.16-3.352-2.29-6.711-3.45-10.082-1.38-4.047-2.7-7.457-2.72-11.949-.01-15.219 14.95-26.598 29.62-22.539 5.89 1.621 10.91 5.558 13.96 10.75 0-.012.01-.012.01-.02 1.61 2.149 2.54 5.859 3.43 8.559.99 3.05 2 6.129 3.01 9.179 2.43 7.371 4.87 14.731 7.3 22.082 4.94 14.969 9.96 29.911 14.91 44.868 9.91 29.863 19.78 59.73 29.65 89.64 20.69 62.731 41.22 125.531 61.82 188.313 20.35 62.039 40.62 124.109 60.91 186.168 20.88 63.87 41.44 127.84 62.78 191.56 3.28 9.81-3.71 20.72-13.27 23.35M2703.51 238.609c-2.01.563-4.08.821-6.14.821-4.12 0-8.23-1.071-11.82-3.18-5.45-3.18-8.73-8.059-10.71-13.941-8.11-24.2-16.22-48.407-24.33-72.618-4.32-12.921-8.65-25.832-12.97-38.761-1.98-5.891-4.01-11.84-5.27-17.95-1.15-5.558-1.61-11.27-1.91-16.94-.33-6.528 3.96-14.411 9.94-17.298 1.56-.75 3.09-1.672 4.79-2.031 9.34-1.941 17.29 1.328 22.63 9.219 2.14 3.16 4.05 6.289 5.86 9.632 3.34 6.149 5.38 12.938 7.71 19.52 4.47 12.707 8.61 25.539 12.89 38.328 8.55 25.5 17.09 51 25.63 76.512 4.03 12.058-4.54 25.437-16.3 28.687M4183.25 3520.04c-30.33-38.63-60.84-77.1-91.29-115.63-1.21-1.56-2.42-3.12-3.63-4.71-2.09-3.61-3.15-7.5-3.17-11.69 0-6.15 2.46-12.09 6.8-16.43 4.33-4.33 10.28-6.79 16.42-6.79 5.52 0 12.82 2.25 16.4 6.79 92.16 116.59 184.79 232.8 277.49 348.98 92.94 116.48 185.62 233.17 278.44 349.75 15.32 19.24 30.62 38.48 45.94 57.71 7.16 8.97 14.31 17.95 21.47 26.91 3.66 4.6 7.31 9.2 10.96 13.8 4.49 5.68 9.57 11.23 13.41 17.34 7.67 12.17 2.63 29.01-9.46 36.08-4.05 2.36-8.69 3.58-13.34 3.58-2.34 0-4.7-.31-6.97-.94-5.56-1.53-11.83-5.45-14.96-10.64-1.14-1.45-2.25-2.94-3.39-4.38-2.79-3.53-5.58-7.08-8.38-10.61-5.33-6.77-10.62-13.57-15.95-20.35l-34.66-44.2c-22.11-28.18-44.21-56.34-66.33-84.49-46.59-59.34-93.16-118.65-139.74-177.98-92.12-117.29-183.98-234.8-276.06-352.1M4862.66 4324.37c4.26 0 9.88 1.74 12.66 5.24 34.51 43.67 69.52 86.99 104.39 130.38 17.82 22.15 35.63 44.31 53.45 66.48 8.72 10.85 17.44 21.68 26.15 32.53 3.41 4.24 6.8 8.48 10.26 12.69 2.65 3.23 4.69 5.86 5.82 9.98.35 1.22.52 2.41.58 3.59 2.02 2.83 4.04 5.66 6.07 8.48 3.53 4.92 6.74 10.01 10 15.13 3.52 5.57 2.25 13.31-2.32 17.88-2.82 2.82-6.66 4.26-10.49 4.26-3.79 0-7.57-1.4-10.37-4.26-3.53-3.63-7.15-7.18-10.47-11l-8.6-9.86c-1.28-.39-2.54-.91-3.77-1.64-4.14-2.41-6.73-6.16-9.5-9.89-62.04-79.9-123.77-160.08-186.51-239.45-.91-1.21-1.85-2.42-2.78-3.63a17.97 17.97 0 0 1-2.45-9.03c0-4.72 1.9-9.3 5.23-12.64 3.34-3.34 7.92-5.24 12.65-5.24M5198.73 4747.11c4.84 0 11.21 1.98 14.35 5.95 43.3 54.79 87.06 109.21 130.79 163.63 23.12 28.78 46.23 57.54 69.35 86.32 11.55 14.38 23.11 28.76 34.67 43.14 5.32 6.64 10.67 13.28 15.99 19.92 5.82 7.26 11.46 14.72 17.76 21.57 4.27 4.67 6.88 10.21 6.88 16.63 0 6.22-2.5 12.26-6.88 16.64-4.58 4.59-10.5 6.77-16.39 6.77-8.05 0-16.05-4.05-20.56-11.53-1-1.58-2.08-3.11-3.2-4.63-85.55-110.03-170.68-220.41-257.1-329.77-1.07-1.37-2.13-2.73-3.17-4.1-1.85-3.16-2.78-6.57-2.78-10.24 0-5.37 2.15-10.55 5.95-14.35 3.78-3.78 8.98-5.95 14.34-5.95M1895.2 622.898c-.55-.707-1.1-1.437-1.66-2.148.56.719 1.11 1.441 1.66 2.148" transform="matrix(.13333 0 0 -.13333 0 761.28)"/>
    <path style="fill:#f7f8f9;fill-opacity:1;fill-rule:nonzero;stroke:none" d="M2924.8 1850.62c6 7.61 12.01 15.21 18.01 22.79 1.31 1.69 2.6 3.37 3.92 5.05 2.25 3.91 3.39 8.12 3.41 12.63 0 6.6-2.67 13.01-7.33 17.66a25.053 25.053 0 0 1-17.67 7.33c-5.95 0-13.81-2.43-17.68-7.33-87.11-110.21-174.69-220.1-262.25-330-86.66-108.75-172.78-217.92-258.78-327.21-82.44-104.77-164.32-210-246.34-315.138-41.35-53.011-82.78-105.933-124.17-158.922-40.8-52.238-81.84-104.3-122.38-156.73-.01-.008-.01-.02-.02-.031-.1-.129-.2-.25-.3-.387.03.039.05.066.08.109-.5-.652-.99-1.281-1.49-1.929.15.199.3.39.45.59-2.53-3.293-5.07-6.571-7.62-9.852 1.14 1.449 2.25 2.91 3.39 4.359-4.05-5.218-8.08-10.461-12.09-15.687-.96-1.152-1.86-2.383-2.72-3.633-2.07-2.969-2.69-6.617-2.84-10.187-.66-2.422-.87-4.872-1.17-7.411-.49-4.211 2.09-9.132 4.97-12 4.03-4.019 10.94-6.382 16.51-4.359 2.23.797 4.37 1.609 6.39 2.719 3.58 1.031 7.04 2.597 9.57 5.449 1.72 1.941 3.32 3.98 4.96 5.98 4.79 5.899 9.55 11.79 14.32 17.711 11.31 13.981 22.48 28.079 33.72 42.118 21.17 26.441 42.32 52.89 63.46 79.343 42.52 53.168 85.04 106.348 127.56 159.508 84.92 106.18 170.2 212.08 254.76 318.56 86.3 108.68 172.42 217.51 258.22 326.58 87.12 110.73 173.79 221.82 261.15 332.32" transform="matrix(.13333 0 0 -.13333 0 761.28)"/>
    <path style="fill:#f7f8f9;fill-opacity:1;fill-rule:nonzero;stroke:none" d="M1893.54 620.75a7.562 7.562 0 0 0-.24-.309c.07.098.15.18.22.278.01.011.01.023.02.031M1813.84 506.859c-5.17 0-11.99-2.109-15.34-6.339a65514.281 65514.281 0 0 0-40.09-50.731c-14.95-18.918-30.37-37.5-45.59-56.23-14.88-18.321-29.83-36.618-44.77-54.911-7.28-8.886-14.51-17.796-21.84-26.656-6.23-7.531-12.51-15-18.37-22.832-3.75-5.012-4.07-13.211-2.49-18.969 1.7-6.14 5.81-11.48 11.31-14.691 10.74-6.289 26.87-3.328 33.21 7.969 7.63 9.511 14.72 19.492 22.13 29.16 10.59 13.851 21.17 27.723 31.77 41.59 21 27.5 42.16 54.883 63.25 82.293 14.05 17.777 28.1 35.539 42.15 53.32 1.14 1.477 2.28 2.93 3.4 4.41 1.97 3.367 2.94 7.028 2.96 10.93 0 5.738-2.31 11.289-6.36 15.348a21.772 21.772 0 0 1-15.33 6.339M4409.14 3189.36c-13.5-7.51-17.86-25.7-10.17-38.84 7.94-13.54 25.32-17.68 38.83-10.17 81.61 45.32 163.22 90.64 244.8 136.04 40.59 22.58 81.2 45.09 121.75 67.76 20.7 11.56 41.39 23.12 62.07 34.68 10.35 5.79 20.7 11.57 31.04 17.34 8.94 5.01 18.15 9.7 26.78 15.2 12.68 8.1 17.76 24.43 9.92 37.81-3.62 6.18-9.62 10.8-16.51 12.7-2.36.65-4.66.95-6.88.95-4.96 0-9.64-1.46-14.42-3.74-7.9-3.78-15.5-8.33-23.18-12.57-10.37-5.73-20.74-11.45-31.13-17.19-20.75-11.45-41.51-22.9-62.24-34.35-40.66-22.44-81.24-45.02-121.86-67.53-82.95-45.98-165.87-92.03-248.8-138.09M5092.34 3562.65c-10.96-6.08-14.49-20.84-8.26-31.48 6.42-10.98 20.52-14.34 31.47-8.25 259.98 144.39 520.5 287.8 780.7 431.8 61.64 34.1 123.18 68.46 184.71 102.77 29.17 16.28 58.36 32.49 87.56 48.72 15.17 8.43 30.34 16.86 45.52 25.3 7.5 4.15 14.99 8.32 22.48 12.49 3.95 2.19 7.83 4.53 11.74 6.78 2.7 1.57 4.63 3.51 6.38 5.69 1.27 1.32 2.37 2.77 3.28 4.33.01.01.03.03.04.05 0 0 0 .01-.01.01 2.07 3.53 3.19 7.59 3.19 11.73 0 6.14-2.46 12.09-6.82 16.42-3.75 3.77-9.69 6.87-15.21 6.87-.4 0-.8-.02-1.21-.06-5.18-.44-9.26-.95-13.95-3.44-3.99-2.13-7.99-4.24-11.98-6.37-7.57-4.03-15-8.33-22.5-12.5-16.44-9.13-32.87-18.25-49.32-27.37-31.84-17.67-63.71-35.34-95.57-52.98-65.61-36.36-131.27-72.65-196.79-109.17-130.61-72.81-261.2-145.66-391.76-218.58-121.17-67.69-242.35-135.36-363.69-202.76M2270.4 1941.11c5.51 3.03 11.02 6.06 16.52 9.08 84.31 46.32 168.84 92.21 253.06 138.68 20.04 11.04 40.07 22.11 60.13 33.12 10.07 5.52 20.15 11.01 30.15 16.63 4.2 2.36 8.38 4.8 12.55 7.23 3.01 1.75 6.25 3.32 9.05 5.38 1.74 1.35 3.5 2.7 5.24 4.05 3.21 3.24 5.45 7.04 6.67 11.45 1.85 6.7.89 13.99-2.6 19.99-3.4 5.81-9.02 10.13-15.5 11.91-2.25.62-4.52.92-6.77.92-2.37 0-4.72-.33-7.01-.97-.01.02-.01.03-.02.05-.15-.06-.31-.13-.46-.18-1.97-.59-3.89-1.4-5.73-2.43-.3-.16-.61-.33-.91-.5-6.41-3.02-12.63-6.47-18.83-9.87-10.87-5.96-21.66-12.05-32.46-18.12-20.79-11.68-41.63-23.31-62.46-34.95-41.27-23.09-82.42-46.43-123.61-69.67-34.21-19.31-68.43-38.57-102.67-57.79-56.04-31.34-112.06-62.68-168.11-94.02-85.41-47.77-170.76-95.62-256.28-143.2-84.94-47.24-169.87-94.44-254.76-141.78-43.39-24.2-86.82-48.32-130.22-72.5l-65.42-36.43c-10.51-5.86-21.02-11.7-31.51-17.56-10.27-5.72-20.4-11.86-30.93-17.04-5.13-2.5-9.04-8.3-10.51-13.66-2.17-7.86.1-16.47 5.88-22.22 8-8.01 21.2-8.61 29.93-2.2 8.52 5.15 17.45 9.73 26.15 14.54 10.51 5.82 21.03 11.64 31.55 17.46 21.01 11.65 42.03 23.28 63.05 34.92 42.54 23.57 85.06 47.16 127.6 70.7 85.07 47.08 170.09 94.25 255.11 141.4 131.24 72.79 262.71 145.16 394.13 217.58M1209.5 1389.7c-1.75 0-3.53-.42-5.19-1.27-10.69-5.43-21.4-10.83-31.98-16.5-11.91-6.35-23.84-12.72-35.75-19.1-23.72-12.68-47.43-25.33-71.11-38.03-41.86-22.44-83.868-44.64-125.904-66.78-6.601-3.25-13.211-6.49-19.812-9.73-3.797-1.87-6.691-6.16-7.793-10.14a17.025 17.025 0 0 1 1.707-13.06c2.215-3.8 5.906-6.64 10.137-7.8 3.937-1.08 9.672-.91 13.078 1.7 6.203 3.88 12.414 7.75 18.613 11.62 5.16 3.02 10.32 6.05 15.477 9.07 11.554 6.74 23.113 13.51 34.647 20.27 22.78 13.34 45.67 26.45 68.53 39.61 23.24 13.37 46.44 26.76 69.67 40.15 11.7 6.75 23.4 13.5 35.11 20.25 11.93 6.88 23.74 13.97 35.53 21.1 4.79 2.67 6.34 9.11 3.62 13.76-1.91 3.26-5.17 4.88-8.58 4.88M493.949 4085.23c.227-.13.453-.26.696-.37 10.027-5.36 20.043-10.73 30.07-16.09 10.851-5.81 21.98-11.1 33.023-16.51 21.516-10.55 43-21.14 64.551-31.6 43.746-21.22 87.473-42.43 131.195-63.65 88.254-42.82 176.649-85.32 264.956-128.05 87.87-42.54 175.75-85.08 263.69-127.53 43.78-21.14 87.61-42.18 131.48-63.16 21.99-10.55 43.99-21.07 65.98-31.6 21.52-10.3 42.93-20.85 64.59-30.88 14.35-6.62 28.71-13.18 43.3-19.22 6.91-2.84 13.76-5.82 20.74-8.47 3.37-1.28 6.75-2.56 10.1-3.81 1.69-.64 3.37-1.28 5.06-1.92 2.22-.84 4.97-1.11 7.3-1.64 4.79-1.06 9.51-.71 13.81 1.81 4.01 2.35 6.99 6.23 8.24 10.71 1.27 4.63.6 9.67-1.81 13.81-.8 1.37-1.75 2.57-2.81 3.62l-.03.03c-.93.91-1.95 1.7-3.05 2.38-.87.67-1.73 1.35-2.6 2.03l-3.96 3.05c-1.56.91-3.14 1.81-4.71 2.72-4.73 2.74-9.44 5.54-14.27 8.11-10.65 5.72-21.36 11.36-32.11 16.87-20.9 10.67-42.36 20.24-63.6 30.16-44.22 20.67-88.44 41.33-132.67 62-88.46 41.34-177.14 82.23-265.78 123.19-89.28 41.24-178.564 82.48-267.775 123.86-88.125 40.87-176.274 81.69-264.653 121.98-14.75 6.73-29.464 13.5-44.254 20.14-15.074 6.78-30.5 12.85-45.789 19.17-.851.36-1.824.51-2.828.51-2.152 0-4.445-.71-6.082-1.68-3.515-2.06-5.73-5.91-5.73-9.98 0-4.08 2.215-7.93 5.73-9.99M2167.59 3321.71c-.14.22-.28.45-.43.67-2.76 4.37-5.41 8.78-10.04 11.5-5.59 3.32-11.13 6.71-16.97 9.58-11.11 5.49-22.21 10.89-33.48 16.02-23.14 10.53-46.36 20.88-69.54 31.3-23.28 10.46-46.57 20.89-69.85 31.35-11.76 5.28-23.52 10.51-35.5 15.28-12.14 4.86-24.29 9.72-36.43 14.58-.9.48-1.88.89-2.98 1.19-1.32.36-2.66.53-4 .53-4.03 0-8-1.58-10.9-4.47-6.85-6.85-5.59-19.28 3.09-24.06 11.42-6.3 22.85-12.58 34.26-18.88 10.92-6.02 21.98-11.65 33.15-17.21 22.78-11.34 45.54-22.67 68.3-33.99 22.68-11.28 45.34-22.64 68.08-33.81 11.11-5.45 22.35-10.61 33.63-15.73 5.59-2.53 11.23-4.81 16.99-6.9 3.6-1.33 7.83-3.5 11.78-3.06l6.55.75c4.62.51 8.42 1.49 11.83 4.88 3.11 3.13 4.88 7.41 4.88 11.81 0 2.97-.81 5.89-2.28 8.43-.04.08-.09.16-.14.24M2614.06 3109.65c-.36 1.26-.85 2.48-1.46 3.65-1.85 3.92-4.4 6.94-8.42 9.59-3.65 2.42-7.42 4.63-11.2 6.87-9.64 5.74-20.15 10.23-30.25 15.06-23.77 11.34-47.6 22.58-71.42 33.85-46.29 21.91-92.6 43.78-138.9 65.67-4.02 1.9-7.93 3.13-12.08 3.13-1.85 0-3.76-.25-5.73-.79-4.7-1.3-8.82-4.14-11.85-7.92-1.13 2.12-3.35 3.61-5.88 3.61-3.64 0-6.69-3.05-6.69-6.69 0-3.64 3.05-6.69 6.69-6.69.47 0 .92.05 1.37.15-.76-3.59-.77-7.33.2-10.89 1.48-5.35 5.44-11.37 10.64-13.82 46.3-21.91 92.58-43.83 138.86-65.72 22.71-10.74 45.38-21.52 68.12-32.15 11.2-5.26 22.34-10.76 33.82-15.38 4.09-1.65 8.17-3.21 12.31-4.72 5.86-2.13 11.93-3.83 18.07-1.51 3.37.94 6.28 2.65 8.77 5.12 3.71 3.71 5.82 8.8 5.82 14.05 0 1.8-.25 3.58-.72 5.29h.01c-.02.09-.05.16-.08.24M4309.08 2319.44c-2.12 0-4.3-.28-6.57-.91-6.6-1.8-12.31-6.23-15.78-12.12-3.56-6.11-4.53-13.53-2.66-20.35 1.69-6.1 6.22-12.98 12.14-15.76 134.21-63.51 267.87-128.25 401.7-192.55 134.42-64.59 268.84-129.14 403.34-193.55 48.64-23.29 97.26-46.55 145.88-69.84 25.46-12.19 50.92-24.39 76.4-36.59 12.03-5.75 24.07-11.52 36.1-17.29 14.1-6.75 28.48-13.66 43.34-18.54 16.11-5.3 33.95 5.99 38.28 21.73 2.2 8.03 1.07 16.78-3.14 23.97-2.77 4.69-6.48 8.39-11.17 11.17-3.53 2.23-6.91 4.36-10.67 6.21-3.98 1.94-7.94 3.88-11.89 5.83-7.98 3.9-15.97 7.73-23.99 11.48-17.5 8.17-35 16.35-52.48 24.51-33.41 15.61-66.8 31.21-100.2 46.82-66.66 31.18-133.34 62.31-200.01 93.51-135.33 63.35-270.91 126.19-406.39 189.27-99.54 46.35-199.19 92.47-298.46 139.44-4.57 2.16-9.05 3.56-13.77 3.56M5934.86 1552.66c-2.18 1.81-4.37 3.63-6.55 5.43-1.08.89-2.16 1.8-3.27 2.71-3.14 2.67-6.37 5.23-9.68 7.68-7.48 3.78-14.96 7.58-22.42 11.36-13.95 7.09-28.39 13.32-42.56 19.94-28.78 13.48-57.49 27.11-86.28 40.57-60.83 28.44-121.57 57.07-182.26 85.8-5.49 2.59-10.84 4.27-16.5 4.27-2.56 0-5.18-.34-7.89-1.1-7.92-2.16-14.79-7.45-18.93-14.54-4.28-7.31-5.45-16.22-3.19-24.4 2.02-7.34 7.43-15.56 14.55-18.91 59.31-28.07 118.59-56.19 177.78-84.51 28.75-13.74 57.54-27.33 86.28-41.06 14.14-6.76 28.27-13.51 42.38-20.26 7.62-3.64 15.41-6.9 23.14-10.31 5.21-2.29 10.15-4.64 15.78-5.73 4.36-.84 8.71-1.69 13.08-2.53 4.83-1.29 9.66-1.29 14.51 0 6.81 1.88 12.72 6.44 16.3 12.54 2.46 4.26 3.71 8.84 3.73 13.78 0 6.64-2.71 14.87-8 19.27M6072.09 1430.21c21.04-9.94 41.97-20.06 62.85-30.3 10.83-5.32 21.68-10.65 32.51-15.96 10.44-5.13 21.39-9.32 32.1-13.82 2.09-.89 4.18-1.78 6.27-2.65 4.66-1.26 9.31-1.26 13.96 0 6.55 1.79 12.26 6.17 15.67 12.05 6.99 11.93 3.24 29.24-9.4 35.92-10.23 5.38-20.34 11.15-30.87 15.93-11.02 5.03-22.02 10.04-33.05 15.06-21.19 9.64-42.32 19.43-63.38 29.41-4.58 2.16-9.06 3.55-13.79 3.55-2.12 0-4.29-.27-6.55-.9-6.6-1.82-12.34-6.25-15.8-12.13-3.56-6.12-4.53-13.55-2.66-20.37 1.69-6.11 6.22-12.97 12.14-15.79M5238.33 2682.6c-5.62.76-11.22 1.63-16.81 2.51-1.4 1.15-2.89 2.2-4.49 3.15-5.3 3.07-10.99 4.6-17.1 4.62-2.64.25-5.28.32-7.91.32-2.64 0-5.28-.07-7.92-.1-7.19-.06-14.41-.11-21.6-.15l-44.54-.27c-28.24-.16-56.49-.34-84.73-.49-56.92-.31-113.86-.61-170.79-.91-114.46-.63-228.91-1.14-343.36-1.22-17.17 0-31.5-14.32-31.5-31.49 0-17.15 14.33-31.49 31.5-31.49 112.96.09 225.92-.29 338.88-.74 56.93-.24 113.84-.44 170.75-.7 28.27-.12 56.53-.24 84.8-.39 14.83-.05 29.7-.12 44.54-.19 7.32-.04 14.63-.05 21.94-.11 6.63-.05 13.33-.44 19.94.19 6.11.02 11.8 1.57 17.1 4.64 1.61.95 3.11 2.01 4.52 3.16 5.58.89 11.17 1.77 16.78 2.54 4.14 1.17 7.72 3.27 10.78 6.29 4.54 4.56 7.15 10.83 7.15 17.27-.02 4.4-1.14 8.52-3.34 12.32-2.86 4.88-8.72 10.42-14.59 11.24M6225.62 2693.12c-1.27.44-2.55.88-3.82 1.32-3.4 1.17-7.32 1.39-11.21 1.39-1.19 0-2.37-.02-3.54-.04-1.26-.02-2.5-.05-3.7-.04-7.24.02-14.46.02-21.71.02-15.28-.02-30.57-.05-45.85-.07-30.29-.06-60.6-.09-90.88-.13-61.17-.08-122.33-.15-183.48-.22-126.07-.17-252.14-.29-378.2-.36-19.51-.02-35.79-16.28-35.79-35.79 0-19.49 16.28-35.79 35.79-35.77 126.06.06 252.13.1 378.2.12h316.01c7.15-.02 14.32 0 21.48.02 4.43.01 8.86.03 13.29.05 5.53.02 8.96 1.08 13.45 2.63 5.8.01 11.61 0 17.41.01 9.68.02 19.37.07 29.05.12l6.97-.03c44.27-.16 88.55-.29 132.81-.6 21.77-.17 43.51-.3 65.26-.47 11.07-.09 22.11-.15 33.15-.19 2.42-.01 4.83-.01 7.24-.01 8.14 0 16.26 0 24.38-.49 9.05-.55 18.71 4.09 24.96 10.33 6.6 6.59 10.35 15.64 10.35 24.97 0 9.34-3.75 18.37-10.35 24.96-5.91 5.93-14.89 10.39-23.49 10.39-.5 0-.98-.02-1.47-.05-9.18-.56-18.45-.5-27.66-.52-11.13-.02-22.26-.13-33.4-.22-21.73-.19-43.45-.37-65.18-.55-44.28-.39-88.58-.58-132.87-.78-3.77-.02-7.54-.04-11.31-.07-8.24.04-16.5.07-24.73.09-7.06 0-14.11-.02-21.16-.02M2421.87 2627.97c60.2.24 120.39.39 180.59.42 15.77.02 28.92 13.15 28.92 28.94 0 15.76-13.15 28.94-28.92 28.94-58.69-.06-117.4 0-176.09.17-21.76.07-43.51.16-65.27.16-6.98 0-13.95-.01-20.92-.03-8.35-.04-16.69-.04-25.02-.04-21.55.02-43.11.02-64.62-.53-15.75-.39-28.91-12.84-28.91-28.9 0-7.64 3.06-15.06 8.47-20.45 3.61-3.6 7.85-6.06 12.75-7.44 2.56-.69 5.13-1.03 7.69-1.03 20.31-.5 40.64-.47 60.94-.45 8.07.02 16.13.04 24.18.02 28.75-.06 57.47.09 86.21.22M1207.04 2683.5c-103.25.54-206.51 1.04-309.763 1.04-50.453 0-100.906-.06-151.379-.25-23.918-.07-47.808-.16-71.722-.29-13.426-.07-26.828-.13-40.231-.26-11.859-.11-23.734-.02-35.543-1.17-2.359-.31-4.703-.63-7.066-.95-4.492-1.26-8.398-3.53-11.719-6.83-6.687-6.7-9.336-16.69-6.816-25.84 1.812-6.63 6.25-12.38 12.199-15.87 4.137-2.39 8.609-3.6 13.402-3.62 12.61-1.2 25.336-1.2 38.028-1.2 3.625 0 7.261 0 10.883-.02 18.96-.15 37.921-.16 56.878-.2 34.997-.08 70.008-.19 104.997-.21 73.57-.04 147.16.18 220.732.46 148.17.58 296.33 1.73 444.48 2.45 104.24.54 208.45 1.04 312.68 1.67 51.53.3 103.07.67 154.61 1.05 51.68.38 103.36.39 155.02.42 12.61 0 23.12 10.51 23.12 23.12 0 12.59-10.51 23.12-23.12 23.12-148.08-.11-296.14 1.08-444.22 1.68-148.49.62-296.98.94-445.45 1.7M1666.34 4155.52c.01-.01.01-.01.01-.02.95-1.62 2.07-3.13 3.37-4.54 1.34-1.69 2.76-3.32 4.4-4.8 2.36-2.13 4.72-4.26 7.13-6.32 5.51-4.69 11.01-9.37 16.55-14.03 11.79-9.87 23.62-19.68 35.44-29.48 22.22-18.42 44.59-36.65 66.96-54.88 47.51-38.72 94.98-77.49 142.58-116.11 95.74-77.65 191.59-155.16 287.62-232.48 77.32-62.24 155.02-123.99 233.05-185.32 38.18-30.04 76.53-59.89 114.97-89.62 19.21-14.85 38.56-29.49 58.11-43.87 9.51-7 19.03-13.92 28.79-20.54 10.16-6.89 20.08-14.06 30.01-21.27 9.58-7.85 19.16-15.69 28.74-23.54 3.87-3.18 9.18-3.8 12.97 0 3.29 3.27 3.89 9.8 0 12.98-5.34 4.38-10.7 8.79-16.04 13.17-5.4 4.4-10.92 8.68-16.04 13.4-5.28 4.87-10.58 9.75-15.85 14.61-5.66 5.22-11.01 10.83-16.47 16.23-10.48 10.32-21.7 19.96-32.56 29.86-11.44 10.44-23.14 20.59-34.82 30.75-45.86 39.82-91.85 79.45-138.14 118.75-47.04 39.97-94.07 79.91-141.3 119.66-47.52 39.98-95.29 79.68-142.98 119.45-79.73 66.52-159.69 132.79-239.81 198.83-40.62 33.49-81.2 67.02-121.86 100.43-18.78 15.41-37.57 30.82-56.42 46.13-10.08 8.18-20.2 16.29-30.32 24.41-4.76 3.81-9.54 7.56-14.31 11.32-3.57 2.83-7.14 5.61-10.79 8.31-2.33 1.7-4.37 3.32-7 4.51-2.1.89-4.19 1.77-6.29 2.65-2.32.63-4.65.94-6.98.94-2.34 0-4.67-.31-7.01-.94-6.56-1.8-12.27-6.2-15.71-12.08-3.55-6.09-4.52-13.49-2.64-20.27.62-2.24 1.5-4.34 2.64-6.28M1013.8 4691.84c75.6-60.34 151.4-120.42 227.1-180.66 39.32-31.29 78.54-62.72 117.69-94.23 37.39-30.09 74.85-60.08 111.95-90.49 3.55-2.91 7.01-4.88 11.77-4.88 4.4 0 8.68 1.76 11.79 4.88 3.11 3.11 4.86 7.37 4.86 11.77 0 4.03-1.63 9.11-4.86 11.77-37.07 30.38-73.77 61.18-110.57 91.88-38.51 32.13-76.92 64.33-115.25 96.68-75.2 63.49-150.29 127.12-225.6 190.48-4.97 4.19-10.04 6.94-16.75 6.94-8.37 0-16.25-4.53-20.47-11.74-6.526-11.17-2.37-26.02 8.34-32.4M4789.98 1595.58c8.95-7.74 17.9-15.47 26.77-23.31 8.81-7.74 17.83-15.39 26.09-23.74 3.42-3.4 7.49-5.76 12.15-7.08 1.86-.49 3.71-.81 5.55-.92l.48-.21c.66-.24 1.33-.49 2-.73 1.84-.88 3.67-1.77 5.51-2.67 3.17-1.82 6.6-2.76 10.27-2.76 5.38 0 10.6 2.17 14.4 5.97 2.53 2.53 4.26 5.53 5.24 8.98 1.29 4.74 1.07 11.57-2.06 15.69-1.74 2.31-3.48 4.59-5.23 6.91-.82 1.08-1.54 2.29-2.23 3.51-.01.05-.02.1-.03.14-1.97 7.18-6.55 12.45-12.66 16.45-12.44 8.2-24.15 17.58-35.96 26.68-66.79 51.86-133.23 104.15-199.73 156.38-20.49 16.09-41.07 32.01-61.63 47.99-.94 2.12-2.25 4.05-3.93 5.5-34.4 30.02-69.25 59.55-104.53 88.55-17.25 14.17-34.55 28.26-51.78 42.43-8.79 7.23-17.54 14.53-26.27 21.82-3.59 3.01-7.17 5.99-10.74 9-.67.64-1.35 1.27-2.03 1.91-2.74 2.53-5.71 4.81-8.53 7.26-.8.73-1.61 1.45-2.4 2.18-4.51 4.26-10.33 6.47-16.13 6.47-5.65 0-11.29-2.1-15.65-6.47-4.19-4.19-6.59-9.96-6.59-15.89.02-4.07 1.04-7.83 3.07-11.34 2-3.37 4.69-6.06 8.06-8.06.24-.19.49-.36.73-.54 3.51-2.83 7.01-5.69 10.67-8.33.25-.17.5-.36.76-.55 30.4-24.52 60.59-49.27 90.83-73.99 35.25-28.83 71.04-56.99 107.14-84.77 1.48-.86 3.03-1.44 4.62-1.88 25.22-21.76 50.47-43.48 75.79-65.12 35.35-30.23 70.8-60.36 106.07-90.7 17.33-14.89 34.64-29.8 51.91-44.76M5887.56 769.609c-5.51 6.012-11.74 11.411-17.79 16.903-12.96 11.718-26.81 22.508-40.37 33.519-27.31 22.141-55.28 43.43-82.8 65.309-57.46 45.68-114.68 91.719-171.78 137.86-57.31 46.3-115.19 91.93-172.64 138.05-57.69 46.34-115.69 92.29-173.96 137.91-24.06 18.84-48.02 37.81-72.38 56.24-11.49 8.68-22.95 17.36-34.44 26.02-5.01 3.8-10.09 7.47-15.13 11.22-6.37 4.71-13.47 8.49-20.27 12.55-2.47 1.48-5.21 2.17-7.93 2.17-5.58 0-11.08-2.9-14.03-7.92-3.88-6.64-2.29-14.22 2.63-19.33-.04-.04-.07-.08-.11-.12 5.36-5.92 10.49-12.18 16.42-17.54 5.73-5.21 11.44-10.42 17.22-15.56 13.99-12.41 27.91-24.87 42.06-37.1 27.05-23.37 54.15-46.69 81.29-69.97 56.15-48.18 113.02-95.53 169.58-143.23 56.15-47.36 112.56-94.48 168.91-141.629 55.99-46.859 112.27-93.391 167.69-140.91 22.11-18.942 44.28-37.801 66.7-56.371 11.49-9.52 23.2-18.77 35.2-27.66 5.41-4.02 10.91-7.778 16.5-11.508 6.55-4.34 14.33-8.41 21.92-10.313.01.02.01.051.01.071 4.8-1.391 10.02-1.508 15.25-.071 7.16 1.973 13.39 6.77 17.13 13.18 2.59 4.473 3.9 9.293 3.92 14.461-.02 5.172-1.33 10-3.92 14.469-3.46 7.3-9.48 13.39-14.88 19.3M6244.71 475.238a209.76 209.76 0 0 1-12.19 11.114c-8.93 7.488-17.98 14.796-27.13 21.988a59477.995 59477.995 0 0 0-56.29 44.34c-38.25 30.172-76.3 60.539-113.98 91.402-6.18 5.078-12.2 8.488-20.49 8.488-7.65 0-15.07-3.078-20.49-8.488a29.086 29.086 0 0 1-8.48-20.492c0-7.008 2.84-15.848 8.48-20.488 37.6-30.801 74.76-62.082 111.78-93.59 18.11-15.43 36.21-30.864 54.31-46.321 8.86-7.562 17.78-14.98 26.87-22.261 5.34-4.258 10.61-8.559 16.25-12.399 2.33-1.57 4.65-3.172 6.98-4.75 3.57-2.429 9.67-4 13.9-5.609 9.23-3.531 21.06.68 27.7 7.32 8.82 8.809 11.25 23.707 4.45 34.488-3.47 5.512-6.99 10.68-11.67 15.258M5801.87 3159.36c42.86 10.46 85.71 20.94 128.55 31.41 24.91 6.07 49.78 12.27 74.68 18.35 1.42.17 2.84.39 4.29.66 4.13.78 8.24 1.93 12.32 3.1 11.12 2.73 22.26 5.35 33.34 8.25 10.72 2.51 18.92 10.35 23.18 19.99 3.39 7.5 4.32 16.14 2.05 24.42l-.21.72c-.01.02-.01.04-.02.06-.07.22-.12.44-.2.66-.01.03-.02.08-.04.12-.07.2-.13.4-.2.6-.03.07-.05.14-.07.21-.05.13-.09.26-.14.38-.06.16-.12.32-.18.47-.02.07-.05.12-.07.18a32.93 32.93 0 0 1-1.53 3.42c-.02.04-.04.08-.07.12-.05.1-.09.2-.15.3-.09.18-.19.35-.29.53-.01.01-.01.02-.01.02-3.14 5.69-7.78 10.51-13.42 13.8-5.71 3.34-11.82 4.81-18.08 4.8h-.55c-3.04 0-6.13-.37-9.19-1.16-10.22-2.32-20.39-4.9-30.55-7.4-5.17-.96-10.31-2.14-15.2-3.64-1.94-.44-3.8-1.07-5.56-1.85-52.79-13.07-105.68-25.7-158.46-38.66-71.95-17.65-143.9-35.32-215.83-52.96-145.42-35.69-290.82-71.37-436.23-107.07-173.12-42.5-346.19-85.16-519.33-127.54-18.6-4.56-29.54-25.19-24.57-43.27 5.21-18.87 24.66-29.13 43.27-24.57 291.37 71.33 582.82 142.24 874.22 213.43 84.76 20.7 169.51 41.41 254.25 62.12M6909.72 3434.08c5.38 1.44 10.28 4.1 14.46 8.27 6.1 6.1 9.57 14.46 9.57 23.09 0 8.64-3.47 16.99-9.57 23.1-6.42 6.43-14.58 9.35-23.13 9.35-2.85 0-5.74-.32-8.64-.95-43.46-9.45-86.48-21-129.61-31.85-44.6-11.2-89.22-22.41-133.79-33.68-91.17-23.02-182.42-45.63-273.74-67.99-16.25-3.98-25.8-22-21.45-37.78 4.54-16.48 21.54-25.43 37.78-21.45 89.88 22 179.78 43.76 269.83 65.12 44.79 10.61 89.58 21.3 134.38 31.97 44.7 10.66 89.63 20.56 133.96 32.67-.02.04-.03.09-.05.13M2328.58 2342.92c0 3.23-1.3 6.37-3.57 8.64-2.54 2.54-5.47 3.42-8.67 3.42-1.06 0-2.14-.1-3.24-.26-7.44-1.12-14.88-2.23-22.31-3.35-7.53-1.14-15.13-2.07-22.57-3.65-17.24-3.62-34.48-7.25-51.7-10.88-32.29-6.79-64.48-14.02-96.66-21.22-66.15-14.72-132.13-30.28-198.17-45.44-129.4-29.7-258.64-60.06-388.18-89.22-5.19-1.16-10.41-2.26-15.63-3.35-.35-.05-.69-.1-1.04-.16-6.81-1.01-13.57-2.15-20.36-3.35-7.56-1.35-14.79-7.85-18.53-14.26-4.19-7.16-5.33-15.89-3.13-23.89 2.13-7.75 7.32-14.48 14.26-18.54 7.36-4.3 15.93-5.19 23.88-3.02.01-.04.01-.07.02-.1 6.53 2.06 13.03 4.16 19.5 6.41.24.08.48.17.72.26.35.09.7.19 1.04.29 7.46 2.08 14.92 4.12 22.39 6.08 16.81 4.46 33.61 8.94 50.44 13.34 32.22 8.4 64.44 16.81 96.7 25.12 64.6 16.63 129.25 33.14 193.78 50.08 64.58 16.96 129.24 33.7 193.87 50.51 32 8.33 63.94 16.83 95.9 25.37 15.53 4.16 31.01 8.54 46.49 12.86 7.82 2.18 15.63 4.36 23.45 6.56 8.99 2.51 18.15 4.73 26.97 7.76 11.79 4.07 23.58 8.13 35.37 12.18-.02.04-.03.08-.04.13 2 .51 3.79 1.37 5.45 3.03 2.27 2.27 3.57 5.42 3.57 8.65M1171.25 2039.17c12.02 2.93 19.09 16.26 15.85 27.94-2.82 10.25-12.16 16.56-22.22 16.56-1.89 0-3.81-.22-5.72-.68-33.68-8.27-67.68-15.2-101.57-22.53-35.38-7.66-70.707-15.61-106.004-23.76-71.293-16.44-142.559-33.06-213.75-49.91-145.328-34.36-290.676-68.72-435.969-103.23-21.375-5.08-42.726-10.13-64.105-15.21-9.356-2.21-18.711-4.41-28.086-6.6-9.551-2.26-19.617-3.91-28.887-7.18-5.676-1.6-10.613-4.47-14.785-8.62-3.059-3.06-5.219-6.36-6.731-9.93-4.46-9.58-4.242-21.47 1.383-30.55.024-.06.055-.11.09-.17 2.984-5.04 6.996-9.05 12.039-12.03 2.664-1.12 5.344-2.26 8.004-3.38 5.949-1.59 11.895-1.59 17.844 0 7.105 1.02 14.148 3.21 21.094 4.99 7.828 1.99 15.66 4 23.484 5.99 18.07 4.6 36.148 9.14 54.199 13.7 36.238 9.16 72.492 18.29 108.727 27.43 72.008 18.18 143.996 36.4 215.984 54.63 72.453 18.36 144.918 36.62 217.336 55.14 70.27 17.96 140.66 35.59 210.623 54.77 40.32 11.04 80.55 22.67 121.17 32.63M329.246 3471.58c32.297-9.14 64.59-18.18 97.043-26.79 33.91-8.98 67.906-17.72 101.902-26.42 68.372-17.52 136.719-35.13 205.145-52.41 135.844-34.29 271.744-68.27 407.664-102.27 135.82-33.98 271.65-67.87 407.44-101.9 133.27-33.4 266.62-66.4 399.77-100.22 8.29-2.1 16.6-4.17 24.91-6.18 9.64-2.29 19.53-3.57 29.26-5.47 10.05-1.99 20.09-3.96 30.14-5.95 4.65-.9 9.34-1.7 14.03-2.55 5.76-1.05 11.59-1.23 17.43-1.56 11.45-.64 21.87 8.38 24.89 18.94.62 2.22.66 4.58.92 6.87-.02 4.65-1.19 9-3.53 13.01-2.29 3.89-5.38 6.96-9.25 9.27-3.05 1.35-6.11 2.7-9.16 4.05-4.53 2-8.72 3.42-13.4 4.84-7.42 2.26-14.88 4.39-22.34 6.52-6.85 1.97-13.72 3.96-20.57 5.93-8.42 2.43-16.64 5.29-25.16 7.37-32.36 7.9-64.94 15.02-97.4 22.56-66.85 15.55-133.69 31.21-200.57 46.8-135.67 31.6-271.31 63.45-406.99 95-273.92 63.69-547.643 128.3-822.107 189.62-19.797 4.42-39.59 8.75-59.387 13.08-21.184 4.62-42.52 8.61-63.77 12.89v-.03a11.95 11.95 0 0 1-3.445.49c-4.582 0-8.914-2.46-11.223-6.42-4.258-7.28-.297-16.79 7.758-19.07M2246.32 3044.2c-10.04 0-19.35-6.27-22.16-16.5-3.19-11.61 3.82-24.96 15.8-27.86 38.74-9.35 77.42-18.83 116.05-28.56 19.62-4.95 39.24-9.94 58.89-14.77 9.02-2.21 18.04-4.41 27.06-6.62 5.15-1.26 10.3-2.52 15.44-3.79 4.41-1.08 8.86-2.36 13.34-2.96 4.17-1.12 8.34-1.12 12.51 0 5.88 1.63 10.99 5.55 14.06 10.83 3.2 5.43 4.05 12.05 2.38 18.14-1.12 3.98-3.14 7.44-6.05 10.39-2.93 2.91-6.39 4.93-10.39 6.05-3.05 1.09-6.23 1.73-9.37 2.51-5.13 1.27-10.28 2.48-15.43 3.7-10.33 2.47-20.65 4.93-30.98 7.39-19.69 4.69-39.43 9.22-59.15 13.78-38.83 8.98-77.58 18.21-116.3 27.59-1.9.45-3.82.68-5.7.68M169.277 3523.02c2.45 8.88-2.91 19.08-12.089 21.3-22.317 5.4-44.618 10.89-66.895 16.44-20.566 5.13-41.211 10.08-61.711 15.53-1.727.52-3.457 1.05-5.184 1.57-.004-.03-.004-.05-.011-.08a20 20 0 0 1-4.907.64c-6.347 0-12.515-3.15-15.96-9.05-2.5-4.27-3.176-9.47-1.86-14.24 1.594-5.78 6.742-11.8 12.902-12.92 1.766-.31 3.524-.63 5.282-.94 20.761-4.52 41.433-9.56 62.113-14.4a9719.244 9719.244 0 0 0 67.035-15.94c9.16-2.2 18.731 2.79 21.285 12.09M5404.97 2257.51c.97 3.62.97 7.26 0 10.91-1.28 4.64-4.81 10.18-9.41 12.22-3.98 1.78-7.96 3.57-12.02 5.15-2.9 1.51-5.81 3.05-8.71 4.57-1.35 1.05-2.71 2.1-4.07 3.12-4.54 2.66-9.36 3.37-14.37 4.48-6.82 1.47-13.61 2.98-20.41 4.56-15.93 3.67-31.86 7.34-47.81 11.02-31.17 7.19-62.3 14.61-93.44 21.95-62.68 14.76-125.33 29.73-187.99 44.63-125.67 29.84-251.34 59.79-376.86 90.13-2.03.49-4.07.72-6.08.72-10.65 0-20.53-6.65-23.52-17.51-3.39-12.35 4.07-26.51 16.79-29.6 124.09-29.98 248.07-60.37 372.03-90.82 62.57-15.4 125.17-30.69 187.72-46.19 31.02-7.68 62.05-15.26 93.01-23.09 15.86-4 31.69-8.01 47.55-12 6.9-1.76 13.79-3.52 20.67-5.35 3.86-1 7.71-2.04 11.56-3.06 4.97-1.33 9.55-.91 14.28-.04l10.1.09c-1.95.26-3.89.52-5.82.78 5.69-.77 11.31-1.41 17.06-1.7 9.01-.5 17.43 6.6 19.74 15.03M6689.35 1971.1c-3.84 1.69-7.96 3.98-11.91 5.15-7.32 2.17-14.65 4.16-22.01 6.16-16.47 4.49-33.07 8.45-49.66 12.44-33.58 8.07-67.17 16.06-100.78 23.96-69.62 16.36-139.23 32.77-208.82 49.26-139.73 33.09-279.39 66.4-419.08 99.68-71.79 17.1-143.51 34.5-215.27 51.85-1.91.46-3.85.68-5.74.68-10.12 0-19.5-6.31-22.35-16.65-3.23-11.7 3.85-25.16 15.94-28.09 279.41-67.52 558.64-135.85 837.55-205.38 33.51-8.37 67.02-16.58 100.58-24.73 16.67-4.06 33.32-8.25 50.09-11.81 7.6-1.59 15.18-3.3 22.8-4.74 9.91-1.86 21.54-3.99 30.25 2.5 1.46 1.15 2.91 2.26 4.37 3.38 2.66 2.7 4.51 5.86 5.54 9.52 1.63 5.92.42 11.24-2.18 16.6-1.89 3.9-5.21 8.4-9.32 10.22M7103.99 1855.15c-1.11 4.06-3.64 6.77-6.99 9.12-1.21.83-2.42 1.69-3.63 2.52-1.75.74-3.51 1.49-5.27 2.21 1.37-.56 2.73-1.13 4.1-1.72-3.28 1.44-6.58 2.89-9.87 4.34-3.93 1.72-7.76 2.85-11.9 3.91-8.27 2.04-16.65 3.63-24.94 5.55-17.27 4.01-34.57 7.91-51.78 12.09-36.99 8.95-73.96 17.87-110.94 26.81-1.55.37-3.12.56-4.65.56-8.16 0-15.74-5.1-18.05-13.43-2.59-9.47 3.13-20.33 12.89-22.7 38.03-9.19 76.08-18.37 114.1-27.57 18.19-4.4 36.29-9.09 54.44-13.65 7.86-1.97 15.58-4.34 23.54-5.98 4.35-.88 8.67-1.26 13.08-1.53 1.82-.11 3.62-.23 5.42-.33 1.95-.11 3.82.24 5.75.51 2.76 0 5.32.69 7.71 2.08 3.4 1.99 5.94 5.29 6.99 9.11.73 2.69.73 5.39 0 8.1M5003.16 621.84c-85.2 116.949-170.48 233.801-255.39 350.949a1462.1 1462.1 0 0 1-4.99 6.473c-3.98 3.949-8.66 6.687-14.07 8.199a32.31 32.31 0 0 1-8.44 1.129c-5.64 0-11.25-1.481-16.15-4.348-7.14-4.172-12.47-11.101-14.67-19.07-2.09-7.57-1.58-17.981 3.21-24.59 43.56-60.102 87.26-120.113 130.6-180.391 21.68-30.121 43.34-60.25 65-90.382 11.27-15.649 22.52-31.34 33.81-46.989 5.2-7.23 10.42-14.468 15.64-21.699 2.62-3.601 5.2-7.23 7.81-10.84.65-.89 1.31-1.769 1.98-2.652 1.56-3.238 4.43-6.387 6.48-9.32 8.62-15.719 29.87-20.688 45.05-11.821 7.37 4.313 12.87 11.453 15.14 19.692 2.12 7.672 1.71 18.73-3.32 25.379-2.57 3.402-5.06 6.91-7.69 10.281M5413.15 42.34c.02.012.04.031.05.039-1.13 1.312-2.25 2.64-3.36 3.973-26.03 34.046-51.39 68.57-76.94 102.968-27.06 36.461-53.99 73.032-80.9 109.602-55.21 75-110.69 149.82-165.34 225.238-3.1 4.281-6.38 7.512-11.66 8.961-1.69.461-3.41.699-5.14.699-3.45 0-6.88-.91-9.88-2.672-4.35-2.558-7.61-6.777-8.95-11.648-1.28-4.629-.96-10.988 1.95-15.02 54.6-75.32 108.37-151.238 162.41-226.968 27.16-38.071 54.31-76.141 81.33-114.321 13.25-18.73 26.51-37.472 39.77-56.199 6.55-9.254 13.03-18.55 19.51-27.844 5.17-7.378 10.42-14.75 15.29-22.335.89-1.551 1.84-3.082 2.87-4.563 7.08-11.52 22.12-15.871 34.02-8.91 5.55 3.25 9.71 8.652 11.41 14.86 1.6 5.812 1.28 14.1-2.51 19.14a121.927 121.927 0 0 1-3.93 5M1768.98 4983.14c3.06-7.01 7.09-14.56 12.24-20.24 3.11-3.4 5.79-7.29 8.61-10.94 3.02-3.89 6.04-7.78 9.07-11.68 57.28-77.51 114.13-155.32 171.02-233.09 58.42-79.9 117.01-159.64 175.08-239.78 3.98-5.47 8.2-9.62 14.95-11.49 6.46-1.78 13.49-.85 19.26 2.52 5.59 3.27 9.78 8.7 11.51 14.95 1.63 5.93 1.22 14.08-2.52 19.26-65.05 89.77-129.51 179.93-194.17 269.96-32.24 44.9-64.48 89.8-96.74 134.69-16.17 22.53-32.13 45.24-48.22 67.84-7.45 10.51-14.51 21.31-21.71 31.99-4.01 5.95-8.93 11.03-13.76 16.32-1.65 1.47-3.3 2.93-4.95 4.4-3.18 2.82-6.36 5.48-10.09 7.53-3.84 2.12-8.09 3.23-12.33 3.23-4.12 0-8.23-1.04-11.97-3.23-3.62-2.13-6.5-5.02-8.63-8.63-3.48-5.93-3.69-12-2.43-18.57 1.01-5.29 3.64-10.12 5.78-15.04M3698.56 2371.73c-.04.06-.08.13-.13.2-.55.74-1.1 1.51-1.65 2.26-.52.68-1.04 1.22-1.91 1.45a3.099 3.099 0 0 1-2.45-.32c-1.39-.82-2.15-2.95-1.14-4.36.53-.76 1.08-1.5 1.61-2.26.11-.15.22-.27.33-.4.49-.68.97-1.36 1.47-2.03.49-.7 1.03-1.23 1.9-1.46.82-.23 1.71-.12 2.45.32.71.41 1.24 1.1 1.47 1.9.2.76.14 1.8-.34 2.45-.53.74-1.07 1.49-1.61 2.25M3333.03 2877.35c-3.64 0-6.69-3.06-6.69-6.7s3.05-6.69 6.69-6.69c3.64 0 6.7 3.05 6.7 6.69 0 3.64-3.06 6.7-6.7 6.7" transform="matrix(.13333 0 0 -.13333 0 761.28)"/>
</svg>
