<svg height="103.588" width="216.966" xml:space="preserve" xmlns="http://www.w3.org/2000/svg">
    <path style="fill:#000;fill-opacity:1;fill-rule:nonzero;stroke:none;stroke-width:.133333" d="M0 28.998C39.535 1.625 151.927-2.384 192.984 1.036c19.24 1.6 36.587 15.86 11.476 24.67-13.004 4.562-31.914 8.168-40.614 9.814-21.531 4.073-50.219 11.497-72.608 21.45-17.665 7.853-12.974 6.165 4.653 2.777 14.363-2.758 30.87-5.931 41.815-6.178 3.357-.075 6.281.157 8.632.78 7.405 1.97 7.954 7.467 2.384 11.513C136.296 74.89 120.09 78.913 107.13 86.9c-7.233 4.457-20.805 14.541-1.368 15.021 3.524.087 6.988-.105 9.294.197l.01 1.278c-2.08-.364-36.523 3.805-18.088-13.627 11.113-10.51 27.377-15.181 40.531-22.617 7.436-4.206 11.34-6.301.344-6.053-10.202.228-26.426 3.347-40.545 6.06-16.467 3.165-30.348 5.832-32.698 1.509-5.233-9.627 40.034-25.036 48.985-27.933 17.073-5.528 34.197-9.754 50.564-12.975 6.714-1.31 19.73-4.145 30.341-6.364 12.428-2.599 17.46-5.175-1.661-6.768-39.043-3.252-145.83 2.63-183.688 28.84L0 28.999"/>
</svg>
