<svg xmlns="http://www.w3.org/2000/svg" width="46.344" height="51.719">
    <path data-name="Line 1 copy 2" d="M845.387 313.062a23.788 23.788 0 0 0-9.21-3.866 24.7 24.7 0 0 0-9.21 0c8.096.837 9.101.771 18.42 3.866Zm-9.507-33.922a23.811 23.811 0 0 0-8.37 5.451 24.731 24.731 0 0 0-5.171 7.621c5.239-6.23 5.748-7.098 13.541-13.072Zm-26.787-8.925a23.791 23.791 0 0 0-3.181 9.469 24.7 24.7 0 0 0 .674 9.185c.242-8.135.102-9.133 2.507-18.654Z" transform="translate(-804.812 -264.25)" style="fill:#222529;stroke:#000;stroke-width:1.87px;fill-rule:evenodd"/>
</svg>
