<?xml version="1.0" ?><svg height="60px" version="1.1" viewBox="0 0 60 60" width="60px" xmlns="http://www.w3.org/2000/svg" xmlns:xlink="http://www.w3.org/1999/xlink"><title/><desc/><defs/><g fill="none" fill-rule="evenodd" id="People" stroke="none" stroke-width="1"><g fill="#000000" id="Icon-28"><path d="M39,54 L36,54 L36,49 C36,48.447 35.553,48 35,48 C34.447,48 34,48.447 34,49 L34,55 C34,55.553 34.447,56 35,56 L39,56 C40.122,56 41.295,56.914 41.774,58 L18.225,58 C18.705,56.914 19.877,56 21,56 L31,56 C31.553,56 32,55.553 32,55 C32,54.447 31.553,54 31,54 L26,54 L26,49 C26,48.447 25.552,48 25,48 C24.448,48 24,48.447 24,49 L24,54 L21,54 C18.43,54 16,56.43 16,59 C16,59.553 16.448,60 17,60 L43,60 C43.553,60 44,59.553 44,59 C44,56.43 41.57,54 39,54 M28,40 C28,41.103 28.897,42 30,42 C31.103,42 32,41.103 32,40 C32,38.897 31.103,38 30,38 C28.897,38 28,38.897 28,40 M60,5 L60,41 C60,43.804 57.804,46 55,46 L5,46 C2.196,46 0,43.804 0,41 L0,35 C0,34.447 0.448,34 1,34 L55,34 C55.553,34 56,34.447 56,35 C56,35.553 55.553,36 55,36 L2,36 L2,41 C2,42.71 3.29,44 5,44 L55,44 C56.71,44 58,42.71 58,41 L58,5 C58,3.346 56.654,2 55,2 L5,2 C3.252,2 2.101,3.56 1.998,5.068 L2,31 C2,31.553 1.552,32 1,32 C0.448,32 0,31.553 0,31 L0,5 C0.191,2.166 2.386,0 5,0 L55,0 C57.757,0 60,2.243 60,5" id="imac"/></g></g></svg>